<?xml version="1.0" encoding="UTF-8"?><svg id="b" xmlns="http://www.w3.org/2000/svg" viewBox="0 0 48 40.3"><defs><style>.d{fill:#ddc8a2;}</style></defs><g id="c"><g><path class="d" d="m24,0C30.8,0,37.6,0,44.5,0c1.4,0,2.5.4,3.2,1.7.3.5.4,1.1.4,1.7,0,9.9,0,19.8,0,29.7,0,2.1-1.3,3.4-3.4,3.4-2,0-4,0-6,0-.5,0-.9,0-1.1.6-.2.5-.4,1-.7,1.5-.6,1.1-1.5,1.7-2.8,1.8-6.7,0-13.5,0-20.2,0-1.3,0-2.2-.6-2.8-1.7-.3-.5-.5-1-.7-1.6-.2-.4-.4-.5-.8-.5-2,0-4,0-6,0-2.3,0-3.6-1.2-3.6-3.5C0,23.1,0,13.3,0,3.6,0,1.2,1.2,0,3.6,0c6.8,0,13.6,0,20.4,0Zm0,35.6c6.8,0,13.6,0,20.4,0,2,0,2.8-.8,2.8-2.8,0-9.7,0-19.5,0-29.2,0-2-.8-2.8-2.8-2.8-13.6,0-27.1,0-40.7,0-2,0-2.8.8-2.8,2.8,0,9.7,0,19.4,0,29.2,0,2,.8,2.8,2.8,2.8,6.8,0,13.5,0,20.3,0Zm0,.9h-11.3c-1.6,0-1.6,0-.9,1.5.5,1,1.3,1.5,2.5,1.5.9,0,1.8,0,2.7,0,5.6,0,11.3,0,16.9,0,1.1,0,1.9-.5,2.3-1.4.1-.3.2-.5.4-.8q.4-.8-.5-.8c-4,0-8,0-12.1,0Z"/><path class="d" d="m24,23.9c4.9,0,9.9,0,14.8,0,1.8,0,2.6.8,2.6,2.7,0,1,0,2,0,3,0,1.3-.9,2.2-2.3,2.2-10.1,0-20.2,0-30.3,0-1.4,0-2.3-.9-2.3-2.3,0-1.1,0-2.1,0-3.2,0-1.5.9-2.4,2.4-2.4,5,0,10,0,15,0Zm0,7c5,0,10,0,15,0,1.1,0,1.6-.5,1.6-1.6,0-1,0-2,0-2.9,0-1.1-.5-1.6-1.6-1.6-10,0-20,0-30,0-1.1,0-1.6.5-1.6,1.6,0,.9,0,1.8,0,2.7,0,1.3.5,1.8,1.8,1.8,4.9,0,9.8,0,14.7,0Z"/><path class="d" d="m33.6,20.5c-4.4,0-7.9-3.5-7.9-7.8,0-4.4,3.5-7.9,7.9-7.9,4.3,0,7.9,3.6,7.9,7.9,0,4.4-3.5,7.8-7.9,7.8Zm-.5-13.4q0-1.6-1.3-1.3c-3.7,1-5.9,4.5-5.1,8.3.7,3.5,4.1,5.9,7.8,5.5,3-.3,5.7-3,6.1-5.9,0-.5,0-.6-.6-.6-.5,0-1.1,0-1.6,0-.5,0-.7,0-.8.6-.5,1.9-2.3,3.2-4.1,3.1-2,0-3.6-1.5-4-3.5-.3-2,.7-4,2.7-4.6.9-.3,1.1-.7,1-1.5,0,0,0-.1,0-.2Zm4.3,5.1s0,0,0,0c.9,0,1.8,0,2.7,0,.4,0,.5-.2.5-.5-.3-3-3.1-5.7-6-6-.4,0-.5,0-.5.5,0,1.8,0,3.5,0,5.3,0,.6.3.8.9.8.9,0,1.7,0,2.6,0Zm-7.2.6c0,.3,0,.7.3,1.1.5,1.2,1.8,2.1,3.2,2,1.4,0,2.7-1,3-2.3.1-.4,0-.6-.4-.6-.5,0-1.1,0-1.6,0-1,0-1.5-.6-1.5-1.5,0-.5,0-1.1,0-1.6,0-.5-.2-.5-.6-.4-1.3.4-2.3,1.7-2.3,3.3Z"/><path class="d" d="m14.3,8.4c-2.2,0-4.5,0-6.7,0-.2,0-.4,0-.6,0-.3,0-.5-.2-.4-.4,0-.2.2-.4.4-.4.2,0,.3,0,.5,0,4.6,0,9.2,0,13.8,0,.2,0,.3,0,.5,0,.2,0,.4.2.4.4,0,.2-.2.4-.4.4-.2,0-.4,0-.6,0-2.3,0-4.6,0-7,0Z"/><path class="d" d="m14.3,13.1c-2.3,0-4.7,0-7,0-.3,0-.8,0-.8-.4,0-.5.4-.5.8-.5,4.7,0,9.4,0,14,0,.1,0,.2,0,.4,0,.3,0,.5.1.5.4,0,.3-.2.4-.5.4-.3,0-.6,0-.9,0-2.2,0-4.3,0-6.5,0Z"/><path class="d" d="m12.2,16.9c1.7,0,3.3,0,5,0,.3,0,.7,0,.7.4,0,.5-.4.5-.7.5-3.3,0-6.6,0-10,0-.3,0-.7,0-.7-.5,0-.4.4-.4.7-.4,1.7,0,3.3,0,5,0Z"/></g></g></svg>