<?xml version="1.0" encoding="utf-8"?>
<!-- Generator: Adobe Illustrator 27.2.0, SVG Export Plug-In . SVG Version: 6.00 Build 0)  -->
<svg version="1.1" id="logo" xmlns="http://www.w3.org/2000/svg" xmlns:xlink="http://www.w3.org/1999/xlink" x="0px" y="0px"
	 viewBox="0 0 658.4 175.4" style="enable-background:new 0 0 658.4 175.4;" xml:space="preserve">
<style type="text/css">
	.st0{fill:#696D6E;}
	.st1{fill:#9A2742;}
	.st2{fill:#FFFFFF;}
	.st3{fill:#641F32;}
	.st4{fill:#B6905B;}
	.st5{fill:#641F32;stroke:#641F32;stroke-width:0.5;stroke-miterlimit:10;}
	.st6{fill:#F4F4F4;}
	.st7{fill:#008C3B;}
</style>
<g id="hidalgo">
	<g>
		<path class="st0" d="M118.7,126.3c-0.3-0.3-0.7-0.4-1.1-0.4h-3.3c-0.4,0-0.8,0.1-1.1,0.4c-0.3,0.3-0.4,0.6-0.4,1v18.4H85.2v-18.4
			c0-0.4-0.2-0.7-0.5-1s-0.7-0.4-1.1-0.4h-3.4c-0.4,0-0.8,0.1-1.1,0.4c-0.3,0.3-0.4,0.6-0.4,1v45.9c0,1,0.5,1.4,1.4,1.4h3.3
			c1.1,0,1.6-0.5,1.6-1.4v-21h27.6v21c0,1,0.5,1.4,1.4,1.4h3.3c1,0,1.6-0.5,1.6-1.4v-45.8C119.2,126.9,119,126.6,118.7,126.3z"/>
		<path class="st0" d="M168.3,126.3c-0.3-0.3-0.6-0.4-1-0.4h-3.4c-0.5,0-0.8,0.1-1.1,0.4s-0.4,0.6-0.4,1v45.9c0,1,0.5,1.4,1.4,1.4
			h3.4c1,0,1.5-0.5,1.5-1.4v-45.8C168.7,126.9,168.7,126.6,168.3,126.3z"/>
		<path class="st0" d="M252.6,143.8c-0.6-2.1-1.4-4-2.4-5.8s-2.3-3.5-3.7-4.9c-1.5-1.5-3.1-2.8-4.9-3.8c-1.8-1.1-3.8-1.9-5.9-2.4
			c-2.1-0.6-4.3-0.9-6.7-0.9h-15.3c-1,0-1.5,0.5-1.5,1.6v45.6c0,0.6,0.1,0.9,0.5,1.1c0.3,0.2,0.6,0.3,1,0.3h15.2
			c2.3,0,4.5-0.3,6.6-0.9s4.1-1.4,5.9-2.4c1.8-1.1,3.5-2.3,4.9-3.8c1.5-1.5,2.8-3.1,3.8-4.9c1.1-1.8,1.9-3.7,2.5-5.8
			s0.9-4.2,0.9-6.5S253.1,145.9,252.6,143.8L252.6,143.8z M245.7,157c-0.9,2.2-2.2,4.2-3.8,5.9s-3.6,3-5.8,4c-2.3,1-4.7,1.5-7.4,1.5
			h-10.4v-36.2h10.6c2.5,0,4.9,0.4,7.1,1.3c2.2,0.9,4.1,2.1,5.8,3.6c1.6,1.6,3,3.4,3.9,5.6c1,2.2,1.4,4.6,1.4,7.3
			C247.1,152.4,246.7,154.8,245.7,157L245.7,157z"/>
		<path class="st0" d="M336.2,173.2c0-0.1,0-0.2-0.1-0.3c0-0.1,0-0.2-0.1-0.3l-18.7-45.4c0-0.1-0.1-0.2-0.2-0.4
			c-0.1-0.1-0.2-0.3-0.3-0.4c-0.1-0.1-0.3-0.2-0.5-0.3s-0.5-0.1-0.8-0.1h-2.2c-0.3,0-0.6,0-0.8,0.1c-0.2,0.1-0.4,0.2-0.5,0.3
			s-0.2,0.2-0.3,0.4c-0.1,0.1-0.1,0.3-0.2,0.4l-18.9,45.4c0,0.1,0,0.1-0.1,0.2v0.7c0,0.8,0.5,1.2,1.5,1.2h3.5c0.4,0,0.8-0.1,1.1-0.3
			c0.3-0.2,0.5-0.5,0.7-0.9c0.3-0.9,0.8-2.2,1.4-3.7c0.6-1.6,1.3-3.3,2.1-5.3h23l3.6,9c0.2,0.4,0.4,0.7,0.7,0.9
			c0.3,0.2,0.6,0.3,1.1,0.3h3.5c1,0,1.5-0.4,1.5-1.2C336.2,173.4,336.2,173.3,336.2,173.2L336.2,173.2z M305.6,158l9-22.4l8.9,22.4
			H305.6z"/>
		<path class="st0" d="M406.8,168.7c-0.3-0.3-0.6-0.4-1-0.4h-23v-40.9c0-0.5-0.1-0.8-0.4-1.1c-0.3-0.2-0.6-0.4-1-0.4H378
			c-0.5,0-0.9,0.1-1.1,0.4c-0.3,0.3-0.4,0.6-0.4,1v45.9c0,1,0.5,1.4,1.4,1.4h27.9c0.4,0,0.8-0.1,1.1-0.4c0.3-0.3,0.4-0.6,0.4-1v-3.4
			C407.3,169.3,407.1,168.9,406.8,168.7L406.8,168.7z"/>
		<path class="st0" d="M485.5,153.5c-0.3-0.3-0.7-0.4-1-0.4h-3.4c-1,0-1.4,0.5-1.4,1.4v11.8c-1.6,0.7-3.2,1.3-4.8,1.8
			s-3.2,0.8-4.8,0.8c-2.5,0-4.9-0.5-7.2-1.4c-2.2-1-4.2-2.3-5.9-3.9c-1.7-1.7-3-3.6-4-5.9c-1-2.3-1.5-4.7-1.5-7.3s0.5-4.8,1.4-7
			c1-2.3,2.3-4.2,4-6c1.7-1.7,3.7-3.1,6-4.1s4.8-1.5,7.5-1.5s4.1,0.3,5.9,1c1.8,0.6,3.6,1.5,5.1,2.6c0.2,0.2,0.5,0.3,0.6,0.4
			c0.2,0.1,0.4,0.1,0.5,0.1c0.4,0,0.8-0.3,1.2-0.8l1.7-2.9c0.2-0.2,0.3-0.5,0.3-0.8s0-0.5-0.2-0.7c0-0.2-0.3-0.4-0.6-0.6
			c-2.2-1.5-4.5-2.7-7-3.5s-5.1-1.2-7.8-1.2s-4.5,0.3-6.7,0.9c-2.1,0.6-4.1,1.4-6,2.5c-1.8,1.1-3.5,2.4-5,3.9s-2.8,3.2-3.9,5.1
			c-1.1,1.9-1.9,3.8-2.5,6c-0.6,2.1-0.9,4.3-0.9,6.6s0.3,4.5,0.9,6.7c0.6,2.1,1.4,4.1,2.5,6c1.1,1.8,2.4,3.5,3.9,5s3.2,2.8,5,3.9
			s3.8,1.9,6,2.5c2.1,0.6,4.3,0.9,6.7,0.9s5.5-0.4,8-1.2s4.7-1.9,6.8-3.4l0.3-0.2c0.3-0.1,0.5-0.3,0.6-0.6c0-0.2,0.2-0.5,0.2-0.7
			v-14.7C486,154.1,485.8,153.7,485.5,153.5L485.5,153.5z"/>
		<path class="st0" d="M575.6,143.7c-0.6-2.1-1.4-4.1-2.5-6s-2.4-3.6-3.9-5.1s-3.2-2.8-5.1-3.9c-1.8-1.1-3.8-1.9-6-2.5
			c-2.1-0.6-4.3-0.9-6.6-0.9s-4.5,0.3-6.7,0.9c-2.1,0.6-4.1,1.4-6,2.5c-1.9,1.1-3.5,2.4-5.1,3.9c-1.5,1.5-2.8,3.2-3.9,5.1
			c-1.1,1.9-1.9,3.8-2.5,6c-0.6,2.1-0.9,4.3-0.9,6.6s0.3,4.5,0.9,6.7c0.6,2.1,1.4,4.1,2.5,6c1.1,1.8,2.4,3.5,3.9,5s3.2,2.8,5,3.9
			s3.8,1.9,6,2.5c2.1,0.6,4.3,0.9,6.7,0.9s4.5-0.3,6.7-0.9c2.1-0.6,4.1-1.4,6-2.5s3.6-2.4,5.1-3.9s2.8-3.2,3.9-5
			c1.1-1.8,1.9-3.8,2.5-6c0.6-2.1,0.9-4.3,0.9-6.6S576.2,145.8,575.6,143.7L575.6,143.7z M569.4,155.2c-0.4,1.6-1.1,3.1-1.9,4.5
			c-0.8,1.4-1.8,2.7-2.9,3.8c-1.1,1.1-2.4,2.1-3.8,2.9c-1.4,0.8-2.9,1.4-4.5,1.9s-3.2,0.7-4.9,0.7s-3.4-0.2-5-0.7
			c-1.6-0.4-3.1-1.1-4.5-1.9s-2.7-1.8-3.8-2.9s-2.1-2.4-2.9-3.8c-0.8-1.4-1.4-2.9-1.9-4.5c-0.4-1.6-0.7-3.2-0.7-5s0.2-3.4,0.7-4.9
			c0.5-1.6,1.1-3.1,1.9-4.5c0.8-1.4,1.8-2.6,2.9-3.8c1.1-1.1,2.4-2.1,3.8-2.9s2.9-1.4,4.5-1.9s3.2-0.7,5-0.7c2.6,0,5,0.5,7.3,1.5
			s4.2,2.3,5.9,4s3,3.7,4,5.9c1,2.3,1.5,4.7,1.5,7.3C570.1,151.9,569.8,153.6,569.4,155.2L569.4,155.2z"/>
	</g>
</g>
<g id="m_00000174582831864119784550000006937883744066534559_">
	<path id="f" class="st1" d="M87,103.4v0.3c0,1.3-0.7,2-2.2,2H2.2c-1.5,0-2.2-0.7-2.2-2.2l7.2-70.8c0-0.6,0.3-1.1,0.7-1.6
		c0.4-0.4,1-0.7,1.7-0.7h17.5c1.3,0,2.1,0.6,2.4,1.9l13.8,27.4l13.9-27.4c0.5-1.3,1.3-1.9,2.6-1.9h17.3c0.6,0,1.2,0.2,1.6,0.6
		c0.1,0,0.3,0.2,0.4,0.4c0.3,0.3,0.4,0.8,0.5,1.2C80.8,44.5,82,56.3,83.2,68C84.6,79.7,85.8,91.5,87,103.4z"/>
	<path class="st2" d="M49.3,76H36.8c-0.5,0-0.9,0.2-0.9,0.5l0,0c0,0.3,0.4,0.5,0.9,0.5h12.5c0.5,0,0.9-0.2,0.9-0.5l0,0
		C50.2,76.2,49.8,76,49.3,76z"/>
	<path class="st2" d="M49.3,69.8H36.8c-0.5,0-0.9,0.2-0.9,0.5l0,0c0,0.3,0.4,0.5,0.9,0.5h12.5c0.5,0,0.9-0.2,0.9-0.5l0,0
		C50.2,70.1,49.8,69.8,49.3,69.8z"/>
	<path class="st2" d="M43.1,81.3c-2.9,0-5.2,2.3-5.2,5.2s2.3,5.2,5.2,5.2s5.2-2.3,5.2-5.2C48.3,83.6,45.9,81.3,43.1,81.3z
		 M45.2,87.4H43c-0.5,0-0.9-0.4-0.9-0.9v-2.6c0-0.5,0.4-0.9,0.9-0.9s0.9,0.4,0.9,0.9v1.7h1.3c0.5,0,0.9,0.4,0.9,0.9
		S45.7,87.4,45.2,87.4z"/>
	<path class="st2" d="M34,77.8v17.4h18.2V77.9H34V77.8z M43.1,93.3c-3.8,0-6.9-3.1-6.9-6.9s3.1-6.9,6.9-6.9s6.9,3.1,6.9,6.9
		S46.9,93.3,43.1,93.3z"/>
	<path class="st2" d="M39.5,75.3H37c-0.2,0-0.3-0.1-0.3-0.3v-3.1c0-0.2,0-0.3,0.3-0.3h2.5c0.2,0,0.3,0.1,0.3,0.3V75
		C39.8,75.2,39.8,75.3,39.5,75.3z"/>
	<path class="st2" d="M49.5,75.3H47c-0.2,0-0.3-0.1-0.3-0.3v-3.1c0-0.2,0-0.3,0.3-0.3h2.5c0.2,0,0.3,0.1,0.3,0.3V75
		C49.8,75.2,49.8,75.3,49.5,75.3z"/>
	<path class="st2" d="M44.3,75.3h-2.5c-0.2,0-0.3-0.1-0.3-0.3v-3.1c0-0.2,0-0.3,0.3-0.3h2.5c0.2,0,0.3,0.1,0.3,0.3V75
		C44.6,75.2,44.5,75.3,44.3,75.3z"/>
	<path class="st2" d="M44.9,69.1l-1-1.7V64c0-0.5-0.4-0.9-0.9-0.9s-0.9,0.4-0.9,0.9v3.4l-1,1.7l0,0C41.1,69.2,44.9,69.1,44.9,69.1
		C44.9,69.2,44.9,69.1,44.9,69.1z M43,68.9c-0.3,0-0.5-0.2-0.5-0.5s0.2-0.5,0.5-0.5s0.6,0.2,0.6,0.5S43.3,68.9,43,68.9z"/>
	<path class="st2" d="M43.1,101.9H35c-0.7,0-1-0.7-0.5-1l3.4-2l4.7-2.7c0.3-0.2,0.7-0.2,1,0l4.7,2.7l3.4,2c0.6,0.3,0.2,1-0.5,1
		C51.2,101.9,43.1,101.9,43.1,101.9z"/>
	<path class="st2" d="M34.4,102.8h17.2c0.3,0,0.5,0.2,0.5,0.5l0,0c0,0.3-0.2,0.5-0.5,0.5H34.4c-0.3,0-0.5-0.2-0.5-0.5l0,0
		C33.9,103,34.2,102.8,34.4,102.8z"/>
	<path class="st2" d="M51.2,99.6V96c0-0.3,0.2-0.5,0.5-0.5l0,0c0.3,0,0.5,0.2,0.5,0.5v3.6c0,0.3-0.2,0.5-0.5,0.5l0,0
		C51.4,100.1,51.2,99.9,51.2,99.6z"/>
	<path class="st2" d="M34,99.6V96c0-0.3,0.2-0.5,0.5-0.5l0,0c0.3,0,0.5,0.2,0.5,0.5v3.6c0,0.3-0.2,0.5-0.5,0.5l0,0
		C34.2,100.1,34,99.9,34,99.6z"/>
	<path class="st2" d="M34.4,104.6h17.2c0.3,0,0.5,0.2,0.5,0.5l0,0c0,0.3-0.2,0.5-0.5,0.5H34.4c-0.3,0-0.5-0.2-0.5-0.5l0,0
		C33.9,104.8,34.2,104.6,34.4,104.6z"/>
</g>
<path id="e" class="st3" d="M151.8,85.2h-31.3v-8.5h23c1.5,0,2.2-0.7,2.2-2.2V60.6c0-0.7-0.2-1.2-0.6-1.6s-0.9-0.6-1.6-0.6h-23v-8.2
	h17.8c-2.5-2.2-4.1-4.5-5.6-7.2c-0.6-1.1-0.4-2.5,0.5-3.5c0.6-0.6,1.3-0.9,2.1-0.9s0.9,0.1,1.3,0.3c0.5,0.3,1,0.4,1.7,0.4
	c3,0,7.8-2.7,14.5-6.4c0.1-0.1,0.3-0.1,0.4-0.2c0-0.6-0.2-1.1-0.6-1.5c-0.4-0.4-0.9-0.6-1.6-0.6h-50.1c-1.5,0-2.2,0.7-2.2,2.2v69.8
	c0,1.5,0.7,2.2,2.2,2.2h50.9c0.7,0,1.3-0.2,1.6-0.6c0.4-0.4,0.6-0.9,0.6-1.6V87.4C154,85.9,153.3,85.2,151.8,85.2L151.8,85.2z"/>
<path id="r" class="st1" d="M299.2,102.2l-13.2-26c6.9-4.7,10.4-11.4,10.4-20.1s-1.1-9.4-3.4-13.3c-2.2-3.9-5.4-6.9-9.4-9.1
	s-8.6-3.3-13.8-3.3h-30.7c-1.3,0-2,0.6-2.2,1.7l1.2,0.6c6.7,3.7,11.5,6.4,14.6,6.4s1.2-0.1,1.7-0.4c0.4-0.2,0.9-0.3,1.3-0.3
	c0.8,0,1.5,0.3,2.1,0.9c0.9,0.9,1.1,2.3,0.5,3.5c-3.4,6.4-7.8,10.6-21.4,15.4v44.3c0,1.5,0.7,2.2,2.2,2.2h17.4
	c1.5,0,2.2-0.7,2.2-2.2V81.8h6.3l10,21.3c0.5,1.1,1.4,1.6,2.6,1.6h19.9c0.6,0,1.1-0.1,1.5-0.4c0.3-0.3,0.5-0.6,0.5-1.1
	S299.4,102.7,299.2,102.2L299.2,102.2z M272.3,61.3c-1.2,1.4-2.7,2.1-4.5,2.1h-9.1V49.8h9.3c1.6,0,3,0.5,4.3,1.6
	c1.2,1.1,1.8,2.7,1.8,4.9C274.1,58.2,273.5,59.9,272.3,61.3L272.3,61.3z"/>
<path id="p_00000119110446082219480700000010595914759938831516_" class="st3" d="M467.1,42.9c-2.2-3.8-5.4-6.9-9.5-9
	c-4.1-2.2-8.9-3.3-14.3-3.3h-29.7c-1.5,0-2.2,0.7-2.2,2.2v69.8c0,1.5,0.7,2.2,2.2,2.2H431c1.5,0,2.2-0.7,2.2-2.2V82.2h10.3
	c5.6,0,10.4-1.1,14.5-3.3s7.2-5.3,9.3-9.3s3.2-8.6,3.2-13.8S469.4,46.7,467.1,42.9z M447.7,59.3c-0.6,1-1.5,1.8-2.5,2.4
	c-1.1,0.6-2.2,0.9-3.4,0.9h-8.5V50.3h8.6c1.9,0,3.5,0.6,4.8,1.6c1.3,1.1,2,2.5,2,4.1C448.7,57.2,448.3,58.3,447.7,59.3z"/>
<path id="l" class="st4" d="M621.2,84.5c-0.4-0.4-0.9-0.6-1.6-0.6h-26.4V32.7c0-1.5-0.7-2.2-2.2-2.2h-17.4c-1.5,0-2.2,0.7-2.2,2.2
	v69.8c0,1.5,0.7,2.2,2.2,2.2h46c0.7,0,1.3-0.2,1.6-0.6c0.4-0.4,0.6-0.9,0.6-1.6V86.2C621.8,85.5,621.6,84.9,621.2,84.5L621.2,84.5z"
	/>
<path id="osuperior" class="st4" d="M399.3,26.3c-5.4-11.2-14.9-19.6-26.6-23.7s-24.4-3.3-35.6,2.1c-2,0.9-2.8,3.3-1.8,5.2
	c0.5,1,1.3,1.7,2.2,2c0.9,0.3,2,0.3,3-0.2c9.3-4.5,19.8-5.1,29.6-1.8c9.8,3.4,17.6,10.4,22.1,19.7c0.9,1.9,3.3,2.8,5.2,1.8
	C399.5,30.6,400.3,28.3,399.3,26.3L399.3,26.3z"/>
<path id="oinferior" class="st4" d="M387.7,32c-3.9-8.1-10.8-14.1-19.2-17.1c-8.5-2.9-17.6-2.4-25.7,1.5c-2,0.9-2.8,3.3-1.8,5.2
	s3.3,2.8,5.2,1.8c6.2-3,13.2-3.4,19.7-1.2c6.5,2.3,11.7,6.9,14.7,13.1c0.5,1,1.3,1.7,2.2,2c0.9,0.3,2,0.3,3-0.2
	C387.8,36.3,388.6,33.9,387.7,32L387.7,32z"/>
<g id="o">
	<path class="st4" d="M386,56.7c-0.9-3.2-2.2-6.3-3.9-9.1c-1.7-2.8-3.7-5.4-6-7.8c-2.3-2.3-4.9-4.3-7.7-6c-2.8-1.7-5.9-3-9.1-3.9
		s-6.6-1.4-10-1.4c-5.2,0-10.1,1-14.7,3s-8.6,4.8-12.1,8.2s-6.2,7.5-8.3,12.2c-2,4.6-3,9.6-3,14.8s0.5,6.8,1.4,10.1
		c0.9,3.2,2.2,6.3,3.9,9.1c1.7,2.8,3.7,5.4,6,7.7s4.9,4.3,7.7,6c2.8,1.7,5.9,3,9.1,3.9s6.6,1.4,10,1.4s6.8-0.5,10-1.4
		s6.3-2.2,9.1-3.9c2.8-1.7,5.4-3.7,7.7-6c2.3-2.3,4.3-4.9,6-7.7s3-5.9,3.9-9.1s1.4-6.6,1.4-10.1S386.9,59.9,386,56.7z M373.5,77.2
		c-1.4,3.3-3.3,6.2-5.6,8.6c-2.4,2.5-5.2,4.5-8.4,5.9c-3.2,1.5-6.6,2.2-10.3,2.2s-7.1-0.7-10.3-2.2c-3.2-1.5-6-3.4-8.4-5.9
		s-4.3-5.4-5.7-8.6c-1.4-3.3-2.1-6.8-2.1-10.5s0.7-7.1,2.1-10.4c1.4-3.3,3.3-6.3,5.7-8.8c2.4-2.5,5.2-4.6,8.4-6.1
		c3.2-1.5,6.7-2.3,10.3-2.3s7.1,0.8,10.3,2.3c3.2,1.5,6,3.5,8.4,6.1c2.4,2.5,4.3,5.5,5.6,8.8c1.4,3.3,2.1,6.8,2.1,10.4
		C375.5,70.4,374.8,73.9,373.5,77.2z"/>
	<path class="st4" d="M357.9,57.4c-4.9-4.9-12.7-4.9-17.6,0s-4.9,12.7,0,17.6s12.7,4.9,17.6,0C362.8,70.2,362.8,62.3,357.9,57.4z"/>
</g>
<g id="rueba">
	<g>
		<path class="st3" d="M527.7,69.4L527.7,69.4c0-1.3-0.6-2.5-1.4-3.4c0-0.1,0-0.2-0.2-0.3v-0.1c0-0.1-0.2-0.2-0.2-0.2
			c-0.9-0.8-2.1-1.3-3.4-1.4h-0.8c-1.3,0.1-2.4,0.6-3.4,1.4c0,0.1-0.2,0.1-0.2,0.2c0,0,0,0,0,0.1s-0.2,0.2-0.2,0.3
			c-0.8,0.9-1.3,2.1-1.4,3.4v0.3l0,0v0.4c0,1.3,0.6,2.5,1.4,3.4c0,0.1,0,0.2,0.2,0.3v0.1c0,0.1,0.2,0.2,0.2,0.2
			c0.9,0.8,2.1,1.3,3.4,1.4h0.7c1.3-0.1,2.5-0.6,3.4-1.4c0-0.1,0.2-0.1,0.2-0.2c0,0,0,0,0-0.1s0.2-0.2,0.2-0.3
			c0.8-0.9,1.3-2.1,1.4-3.4l0,0v-0.3l0,0C527.6,69.6,527.6,69.5,527.7,69.4L527.7,69.4z M521.9,74.2c-2.5,0-4.5-2-4.5-4.5
			s2-4.5,4.5-4.5s4.5,2,4.5,4.5S524.4,74.2,521.9,74.2z"/>
		<path class="st3" d="M521.9,71.5c0.9,0,1.7-0.8,1.7-1.7s-0.8-1.7-1.7-1.7s-1.7,0.8-1.7,1.7S521,71.5,521.9,71.5z"/>
		<path class="st3" d="M521.9,29.1c-22.5,0-40.7,18.2-40.7,40.7s18.2,40.7,40.7,40.7s40.7-18.2,40.7-40.7S544.4,29.1,521.9,29.1z
			 M521.9,108c-21.1,0-38.2-17.1-38.2-38.2s17.1-38.2,38.2-38.2c21.1,0,38.2,17.1,38.2,38.2S543,108,521.9,108z"/>
		<path class="st3" d="M521.9,32.3c-20.7,0-37.5,16.8-37.5,37.5s16.8,37.5,37.5,37.5s37.5-16.8,37.5-37.5S542.7,32.3,521.9,32.3z
			 M552.8,89.1c0,0.2-0.2,0.4-0.3,0.5c-2.8,4.3-6.4,7.9-10.7,10.7c-0.2,0.1-0.3,0.2-0.5,0.3c-3.4,2.1-7.2,3.7-11.2,4.7
			c-0.2,0-0.4,0.1-0.6,0.1c-2.4,0.5-5,0.8-7.6,0.8s-5.1-0.3-7.6-0.8c-0.2,0-0.4-0.1-0.6-0.1c-4-0.9-7.8-2.5-11.2-4.7
			c-0.2-0.1-0.4-0.2-0.5-0.3c-4.3-2.8-7.9-6.4-10.7-10.7c0-0.2-0.2-0.3-0.3-0.5c-2.1-3.4-3.7-7.2-4.7-11.2c0-0.2,0-0.4,0-0.6
			c-0.5-2.4-0.8-5-0.8-7.6s0.3-5.1,0.8-7.6c0-0.2,0-0.4,0-0.6c0.9-4,2.5-7.8,4.7-11.2c0-0.2,0.2-0.4,0.3-0.5c1.4-2.1,3-4.1,4.8-5.9
			c0-0.1,0.2-0.2,0.3-0.3c1.7-1.7,3.6-3.2,5.6-4.5c0.2-0.1,0.3-0.2,0.5-0.3c3.4-2.1,7.2-3.7,11.2-4.7c0.2,0,0.4-0.1,0.6-0.1
			c2.4-0.5,5-0.8,7.6-0.8s5.1,0.3,7.6,0.8c0.2,0,0.4,0.1,0.6,0.1c4,0.9,7.8,2.5,11.2,4.7c0.2,0.1,0.3,0.2,0.5,0.3l0,0
			c4.3,2.8,7.9,6.4,10.7,10.7c0,0.2,0.2,0.3,0.3,0.5c2.1,3.4,3.7,7.2,4.7,11.2c0,0.2,0,0.4,0,0.6c0.5,2.4,0.8,5,0.8,7.6
			s-0.3,5.1-0.8,7.6c0,0.2,0,0.4,0,0.6C556.6,82,555,85.7,552.8,89.1L552.8,89.1z"/>
		<g>
			<g>
				<g>
					<polygon class="st5" points="525.5,66.8 525.8,66.8 529.9,34.3 529.6,34.3 					"/>
					<polygon class="st3" points="529.3,35.9 529.9,36 529.9,36 530.1,33.9 530.1,33.9 529.5,33.8 529.5,33.8 					"/>
				</g>
				<g>
					<polygon class="st5" points="518.3,66.8 518.1,66.8 514,34.3 514.2,34.3 					"/>
					<polygon class="st3" points="514.6,35.9 514,36 514,36 513.8,33.9 513.8,33.9 514.4,33.8 514.4,33.8 					"/>
				</g>
			</g>
			<g>
				<g>
					<polygon class="st5" points="518.3,72.8 518.1,72.7 514,105.2 514.2,105.3 					"/>
					<polygon class="st3" points="514.6,103.6 514,103.5 514,103.5 513.8,105.6 513.8,105.6 514.4,105.7 514.4,105.7 					"/>
				</g>
				<g>
					<polygon class="st5" points="525.5,72.8 525.8,72.7 529.9,105.2 529.6,105.3 					"/>
					<polygon class="st3" points="529.3,103.6 529.9,103.5 529.9,103.5 530.1,105.6 530.1,105.6 529.5,105.7 529.5,105.7 					"/>
				</g>
			</g>
		</g>
		<g>
			<g>
				<g>
					<polygon class="st5" points="524.9,73.4 524.9,73.6 557.4,77.7 557.4,77.5 					"/>
					<polygon class="st3" points="555.8,77.1 555.7,77.7 555.7,77.7 557.8,77.9 557.8,77.9 557.9,77.3 557.9,77.3 					"/>
				</g>
				<g>
					<polygon class="st5" points="524.9,66.2 524.9,65.9 557.4,61.8 557.4,62.1 					"/>
					<polygon class="st3" points="555.8,62.4 555.7,61.8 555.7,61.8 557.8,61.6 557.8,61.6 557.9,62.2 557.9,62.2 					"/>
				</g>
			</g>
			<g>
				<g>
					<polygon class="st5" points="518.9,66.2 519,65.9 486.5,61.8 486.4,62.1 					"/>
					<polygon class="st3" points="488.1,62.4 488.2,61.8 488.2,61.8 486.1,61.6 486.1,61.6 486,62.2 486,62.2 					"/>
				</g>
				<g>
					<polygon class="st5" points="518.9,73.4 519,73.6 486.5,77.7 486.4,77.5 					"/>
					<polygon class="st3" points="488.1,77.1 488.2,77.7 488.2,77.7 486.1,77.9 486.1,77.9 486,77.3 486,77.3 					"/>
				</g>
			</g>
		</g>
		<g>
			<g>
				<g>
					<polygon class="st5" points="526.6,70.2 526.8,70.4 552.7,50.3 552.5,50.1 					"/>
					<polygon class="st5" points="551.1,51 551.4,51.5 551.4,51.5 553.1,50.2 553.1,50.2 552.7,49.7 552.7,49.7 					"/>
				</g>
				<g>
					<polygon class="st5" points="521.5,65.1 521.3,64.9 541.4,39 541.6,39.2 					"/>
					<polygon class="st5" points="540.7,40.6 540.2,40.3 540.2,40.3 541.5,38.6 541.5,38.6 542,39 542,39 					"/>
				</g>
			</g>
			<g>
				<g>
					<polygon class="st5" points="517.3,69.3 517.1,69.1 491.2,89.2 491.4,89.4 					"/>
					<polygon class="st3" points="492.8,88.5 492.4,88 492.4,88 490.8,89.3 490.8,89.3 491.2,89.8 491.2,89.8 					"/>
				</g>
				<g>
					<polygon class="st5" points="522.4,74.4 522.6,74.6 502.5,100.5 502.3,100.3 					"/>
					<polygon class="st3" points="503.2,98.9 503.7,99.3 503.7,99.3 502.4,100.9 502.4,100.9 501.9,100.5 501.9,100.5 					"/>
				</g>
			</g>
		</g>
		<g>
			<g>
				<g>
					<polygon class="st5" points="521.5,74.4 521.3,74.6 541.4,100.5 541.6,100.3 					"/>
					<polygon class="st3" points="540.7,98.9 540.2,99.3 540.2,99.3 541.5,100.9 541.5,100.9 542,100.5 542,100.5 					"/>
				</g>
				<g>
					<polygon class="st5" points="526.6,69.3 526.8,69.1 552.7,89.2 552.5,89.4 					"/>
					<polygon class="st3" points="551.1,88.5 551.4,88 551.4,88 553.1,89.3 553.1,89.3 552.7,89.8 552.7,89.8 					"/>
				</g>
			</g>
			<g>
				<g>
					<polygon class="st5" points="522.4,65.1 522.6,64.9 502.5,39 502.3,39.2 					"/>
					<polygon class="st3" points="503.2,40.6 503.7,40.3 503.7,40.3 502.4,38.6 502.4,38.6 501.9,39 501.9,39 					"/>
				</g>
				<g>
					<polygon class="st5" points="517.3,70.2 517.1,70.4 491.2,50.3 491.4,50.1 					"/>
					<polygon class="st3" points="492.8,51 492.4,51.5 492.4,51.5 490.8,50.2 490.8,50.2 491.2,49.7 491.2,49.7 					"/>
				</g>
			</g>
		</g>
	</g>
	<polygon class="st3" points="496,43.8 497.3,45 497.2,45.1 497.9,45.8 498,45.6 498.4,46 498.6,45.8 498.2,45.4 498.4,45.3 
		497.7,44.6 497.6,44.7 496.3,43.5 	"/>
</g>
<g id="i_00000131368126054501352810000014993899714514611624_">
	<path id="p" class="st0" d="M654.7,31.1c-0.3-0.3-0.7-0.5-1.3-0.5h-18c-0.5,0-0.9,0.2-1.2,0.4c0,0-0.2,0.2-0.3,0.3
		c-0.3,0.4-0.4,0.9-0.4,1.5v69.8c0,1.5,0.7,2.2,2.2,2.2h17.4c1.5,0,2.2-0.7,2.2-2.2V32.8C655.3,32,655.1,31.5,654.7,31.1L654.7,31.1
		z"/>
	<g>
		<path class="st6" d="M635.3,30.5v8.2h-1.9v-6.4C633.4,31.4,634.3,30.5,635.3,30.5L635.3,30.5z"/>
		<rect x="638.4" y="30.5" class="st6" width="1.9" height="8.2"/>
		<rect x="643.4" y="30.5" class="st6" width="1.9" height="8.2"/>
		<rect x="648.4" y="30.5" class="st6" width="1.9" height="8.2"/>
		<path class="st6" d="M655.3,32.4v6.4h-1.9v-8.2l0,0C654.4,30.6,655.3,31.4,655.3,32.4z"/>
	</g>
	<rect x="643.4" y="43.1" class="st6" width="1.8" height="11.7"/>
	<rect x="643.4" y="59.2" class="st6" width="1.8" height="11.7"/>
	<rect x="643.4" y="75.3" class="st6" width="1.8" height="11.7"/>
	<rect x="643.4" y="91.3" class="st6" width="1.8" height="11.7"/>
</g>
<path id="t" class="st7" d="M236.9,35.6c-3.1-1.7-6.6-3.7-10.8-5.8c-6.4-3.3-11.5-2-15.4,1c-6,4.6-9,13.1-9.7,14.3
	c-0.5,0.9-2.2,2.6-3.8,4l0,0c-0.1,0.1-0.1,0.1-0.2,0.2l0,0c-0.1,0.1-0.7,0.8-1.7,0.8s-1.3-0.4-1.5-0.6l0,0c-0.1-0.1-0.1-0.1-0.2-0.2
	l0,0c-0.1,0-0.1-0.1-0.2-0.2l0,0c-1.6-1.4-3.2-3-3.8-4c-0.6-1.2-3.7-9.7-9.7-14.3c-3.9-3-8.9-4.3-15.4-1c-4.5,2.3-8.3,4.4-11.5,6.2
	c-8.8,4.9-13.9,7.6-18,5.5c1.8,3.3,3.8,6,8,8.7c3.3,2.1,7.8,4.1,14.6,6.4c5.1,1.7,10.3,1.2,15.1-0.2c4.4-1.3,8.4-3.3,11.5-5.2v51.3
	c0,1.4,0.7,2.2,2,2.2h17.9c1.4,0,2-0.8,2-2.2V51.2c3.1,1.9,7.1,3.9,11.5,5.2c4.8,1.4,10.1,1.9,15.1,0.2c1.4-0.5,2.6-0.9,3.8-1.3
	c12.3-4.5,15.9-8.3,18.8-13.7C251.5,43.6,246.2,40.7,236.9,35.6L236.9,35.6z M191.9,50.6c-1.1-0.6-1.9-0.9-2.6-1.1
	c-1.6-0.4-2.2,0-2.2,0l-0.3-0.3c-0.1-0.1-0.2-0.1-0.2-0.2c-1.5-1.5-3.3-3.1-5.3-4.5c-1.2-0.9-2.5-1.7-3.9-2.3s-1.4-0.6-2.1-0.8h-0.6
	c0-0.1-0.5-0.2-0.5-0.2c-0.4-0.1-0.8-0.1-1.1-0.2c-1.5-0.1-3.1,0-4.6,0.3c-0.9,0.2-1.8,0.4-2.7,0.7c-0.6,0.2-1.2,0.4-1.7,0.6
	c-2.8,1-5.5,2.1-7.9,2.8c-1,0.3-2,0.5-2.8,0.7c-0.1,0-0.3,0-0.4,0.1c-1,0.2-1.8,0.2-2.6,0.3h-2.3h0.6c0.4,0,0.9,0,1.6-0.1
	c0.7-0.1,1.6-0.2,2.5-0.4c0.2,0,0.3-0.1,0.5-0.1c0.8-0.2,1.7-0.5,2.7-0.8c2.3-0.8,4.8-2,7.7-3.2c0.7-0.3,1.4-0.6,2.1-0.8
	c0.8-0.3,1.6-0.6,2.4-0.8c1.6-0.4,3.3-0.7,5-0.6c0.4,0,0.9,0,1.3,0.1h0.7c0,0.1,0.6,0.2,0.6,0.2c0.9,0.2,1.7,0.4,2.5,0.7
	c1.6,0.6,3,1.4,4.4,2.2c2.7,1.7,4.9,3.5,6.8,5.1c0.5,0.4,0.9,0.8,1.3,1.2c0.1,0.1,0.2,0.2,0.3,0.2c0.1,0.1,0.2,0.2,0.4,0.3
	c0,0,0.7,0.6,1.5,1.5C192.4,50.9,192.1,50.7,191.9,50.6L191.9,50.6z M242.3,46.4h-1.7c-0.7,0-1.6-0.1-2.6-0.3
	c-0.4-0.1-0.8-0.1-1.2-0.2c-0.6-0.1-1.3-0.3-2-0.5c-2.4-0.7-5-1.8-7.9-2.8c-0.6-0.2-1.1-0.4-1.7-0.6c-0.9-0.3-1.8-0.5-2.7-0.7
	c-1.5-0.3-3.1-0.5-4.6-0.3c-0.4,0-0.8,0.1-1.1,0.2h-0.5c0,0.1-0.6,0.2-0.6,0.2c-0.7,0.2-1.4,0.5-2.1,0.8c-1.4,0.6-2.7,1.4-3.9,2.3
	c-2,1.5-3.8,3.1-5.3,4.5c-0.1,0.1-0.2,0.2-0.2,0.2c-0.1,0.1-0.2,0.2-0.3,0.3c0,0-0.6-0.4-2.2,0c-0.7,0.2-1.5,0.5-2.6,1.1
	c-0.3,0.1-0.5,0.3-0.8,0.5c0.8-0.9,1.5-1.5,1.5-1.5c0.1-0.1,0.2-0.2,0.4-0.3c0.1-0.1,0.2-0.2,0.3-0.2c0.4-0.4,0.9-0.8,1.3-1.2
	c1.9-1.6,4.1-3.5,6.8-5.1c1.3-0.8,2.8-1.6,4.4-2.2c0.8-0.3,1.6-0.5,2.5-0.7h0.6c0-0.1,0.7-0.2,0.7-0.2c0.4-0.1,0.9-0.1,1.3-0.1
	c1.7-0.1,3.4,0.2,5,0.6c0.8,0.2,1.6,0.5,2.4,0.8c0.7,0.3,1.4,0.5,2.1,0.8c2.8,1.2,5.4,2.4,7.7,3.2c0.7,0.2,1.3,0.4,1.9,0.6
	c0.4,0.1,0.9,0.2,1.3,0.3c1,0.2,1.8,0.4,2.5,0.4s0.9,0,1.3,0h0.6h-0.6L242.3,46.4z"/>
</svg>
